<svg viewBox="0 0 500 500" xmlns="http://www.w3.org/2000/svg" xmlns:bx="https://boxy-svg.com">
  <defs></defs>
  <g transform="matrix(1, 0, 0, 1, 23.216614, 7.387105)" style="filter: drop-shadow(rgba(0, 0, 0, 0.3) 10px 10px 0px);">
    <g>
      <path d="M 124.868 213.116 L 177.112 301.351 L 72.624 301.351 L 124.868 213.116 Z" style="stroke: rgb(0, 0, 0); fill: rgb(255, 137, 74); stroke-width: 0px;" transform="matrix(0.036802, -0.999323, 0.999323, 0.036802, -156.117752, 369.775177)" bx:shape="triangle 72.624 213.116 104.488 88.235 0.5 0 1@27c195af"></path>
      <g transform="matrix(1, 0, 0, 1, 42.084991, -1.379836)">
        <rect x="76.465" y="164.44" width="233.192" height="297.355" style="fill: rgb(216, 216, 216); stroke: rgb(0, 0, 0); stroke-width: 0px;"></rect>
        <ellipse style="fill: rgb(216, 216, 216); stroke: rgb(0, 0, 0); stroke-width: 0px;" cx="192.716" cy="169.615" rx="116.941" ry="116.941"></ellipse>
      </g>
      <path style="stroke: rgb(0, 0, 0); fill: rgb(254, 99, 99); stroke-width: 0px;" d="M 229.627 82.34 L 229.62699999999998 81.88016666666668 C 229.62700000000004 81.42033333333335 229.62700000000004 80.50066666666667 226.75233333333333 70.03699999999999 C 223.87766666666667 59.57333333333333 218.12833333333333 39.565666666666665 218.35816666666668 26.802166666666665 C 218.588 14.038666666666666 224.797 8.519333333333334 237.4455 6.334499999999999 C 250.09399999999997 4.149666666666667 269.18199999999996 5.299333333333333 279.99083333333334 17.142833333333332 C 290.7996666666666 28.986333333333334 293.3293333333333 51.52366666666668 302.41316666666665 55.20333333333334 C 311.497 58.883 327.135 43.705000000000005 343.923 42.32516666666667 C 360.711 40.94533333333333 378.64900000000006 53.36366666666667 376.0043333333333 72.45133333333332 C 373.35966666666667 91.53899999999999 350.1323333333333 117.29599999999999 338.51866666666666 130.1745 L 326.905 143.053" bx:d="M 229.627 82.34 U 229.627 79.581 U 212.379 19.558 U 231.006 3 U 288.27 6.449 U 295.859 74.061 U 342.773 28.527 U 396.587 65.782 U 326.905 143.053 1@1f3aceb5"></path>
    </g>
  </g>
  <g transform="matrix(1.301688, 0, 0, 1.301688, -28.811956, -37.114033)" style="">
    <ellipse style="stroke: rgb(0, 0, 0); fill: rgb(255, 255, 255); stroke-opacity: 0;" cx="217.026" cy="192.075" rx="44.568" ry="44.568"></ellipse>
    <ellipse style="stroke: rgb(0, 0, 0); fill: rgb(22, 22, 22);" cx="208.33" cy="195.336" rx="14.131" ry="14.131"></ellipse>
  </g>
</svg>